<?xml version="1.0" encoding="UTF-8" standalone="no"?>
<!-- Created with Inkscape (http://www.inkscape.org/) -->

<svg
   width="210mm"
   height="297mm"
   viewBox="0 0 210 297"
   version="1.1"
   id="svg1"
   inkscape:version="1.4.2 (ebf0e940d0, 2025-05-08)"
   sodipodi:docname="logo55.svg"
   xmlns:inkscape="http://www.inkscape.org/namespaces/inkscape"
   xmlns:sodipodi="http://sodipodi.sourceforge.net/DTD/sodipodi-0.dtd"
   xmlns="http://www.w3.org/2000/svg"
   xmlns:svg="http://www.w3.org/2000/svg">
  <sodipodi:namedview
     id="namedview1"
     pagecolor="#ffffff"
     bordercolor="#000000"
     borderopacity="0.25"
     inkscape:showpageshadow="2"
     inkscape:pageopacity="0.0"
     inkscape:pagecheckerboard="0"
     inkscape:deskcolor="#d1d1d1"
     inkscape:document-units="mm"
     showgrid="true"
     inkscape:zoom="0.35355339"
     inkscape:cx="-366.28131"
     inkscape:cy="797.61645"
     inkscape:window-width="1920"
     inkscape:window-height="1004"
     inkscape:window-x="0"
     inkscape:window-y="0"
     inkscape:window-maximized="1"
     inkscape:current-layer="layer1">
    <inkscape:grid
       type="axonomgrid"
       id="grid13"
       units="mm"
       originx="0"
       originy="0"
       spacingx="0.99999998"
       spacingy="1"
       empcolor="#0099e5"
       empopacity="0.30196078"
       color="#0099e5"
       opacity="0.14901961"
       empspacing="5"
       dotted="false"
       gridanglex="30"
       gridanglez="30"
       enabled="true"
       visible="true" />
  </sodipodi:namedview>
  <defs
     id="defs1">
    <inkscape:path-effect
       effect="fillet_chamfer"
       id="path-effect20"
       is_visible="true"
       lpeversion="1"
       nodesatellites_param="F,0,0,1,0,13.749999,0,1 @ F,0,0,1,0,0,0,1 @ F,0,0,1,0,0,0,1 @ F,0,0,1,0,0,0,1 @ F,0,0,1,0,13.750003,0,1 @ F,0,0,1,0,0,0,1 @ F,0,0,1,0,0,0,1 @ F,0,0,1,0,0,0,1 @ F,0,0,1,0,13.750001,0,1 @ F,0,0,1,0,0,0,1 @ F,0,0,1,0,0,0,1 @ F,0,0,1,0,0,0,1 @ F,0,0,1,0,13.75,0,1 @ F,0,0,1,0,0,0,1 @ F,0,0,1,0,0,0,1 @ F,0,0,1,0,0,0,1"
       radius="0"
       unit="px"
       method="auto"
       mode="F"
       chamfer_steps="1"
       flexible="false"
       use_knot_distance="true"
       apply_no_radius="true"
       apply_with_radius="true"
       only_selected="false"
       hide_knots="false" />
    <inkscape:path-effect
       effect="fillet_chamfer"
       id="path-effect19"
       is_visible="true"
       lpeversion="1"
       nodesatellites_param="F,0,0,1,0,13.749999,0,1 @ F,0,0,1,0,0,0,1 @ F,0,0,1,0,0,0,1 @ F,0,0,1,0,0,0,1 @ F,0,0,1,0,13.750003,0,1 @ F,0,0,1,0,0,0,1 @ F,0,0,1,0,0,0,1 @ F,0,0,1,0,0,0,1 @ F,0,0,1,0,13.750001,0,1 @ F,0,0,1,0,0,0,1 @ F,0,0,1,0,0,0,1 @ F,0,0,1,0,0,0,1 @ F,0,0,1,0,13.75,0,1 @ F,0,0,1,0,0,0,1 @ F,0,0,1,0,0,0,1 @ F,0,0,1,0,0,0,1"
       radius="0"
       unit="px"
       method="auto"
       mode="F"
       chamfer_steps="1"
       flexible="false"
       use_knot_distance="true"
       apply_no_radius="true"
       apply_with_radius="true"
       only_selected="false"
       hide_knots="false" />
  </defs>
  <g
     inkscape:label="Camada 1"
     inkscape:groupmode="layer"
     id="layer1">
    <g
       id="g59"
       transform="matrix(2.6196765,0,0,2.6196765,-155.84523,-344.48597)">
      <g
         id="g58">
        <path
           style="fill:#000000;fill-opacity:1;stroke-width:0.264583"
           d="m 63.869371,178.12499 11.907849,-6.875 11.907848,-6.875 a 23.815704,23.815704 180 0 1 23.815702,0 l 0,0 11.90784,6.875 11.90785,6.875 a 7.9385661,7.9385661 90 0 1 0,13.75 l -11.90785,6.875 -11.90784,6.875 0,0 a 23.815702,23.815702 3.8523214e-6 0 1 -23.815702,0 l -11.907848,-6.875 -11.907849,-6.875 a 7.9385664,7.9385664 90 0 1 0,-13.75 z"
           id="path18"
           sodipodi:nodetypes="ccccccccccccccccc"
           inkscape:path-effect="#path-effect20"
           inkscape:original-d="m 51.961523,184.99999 11.907848,-6.875 11.907849,-6.875 11.907848,-6.875 11.907849,-6.875 11.907853,6.875 11.90784,6.875 11.90785,6.875 11.90785,6.875 -11.90785,6.875 -11.90785,6.875 -11.90784,6.875 -11.907853,6.875 -11.907849,-6.875 -11.907848,-6.875 -11.907849,-6.875 z" />
        <path
           style="fill:#000000;fill-opacity:1;stroke-width:0.264583"
           d="m 138.85369,178.71351 c 1.55814,5.79914 -0.0657,9.60975 -1.44566,11.41356 l -6.69973,-6.4343 z"
           id="path20"
           sodipodi:nodetypes="cccc" />
        <path
           style="fill:#000000;fill-opacity:1;stroke-width:0.264583"
           d="m 60.621777,177.99999 c -1.55814,5.79914 -0.513935,9.69619 0.866025,11.5 l 6.69973,-6.4343 z"
           id="path22"
           sodipodi:nodetypes="cccc" />
        <path
           style="fill:#00a500;fill-opacity:1;stroke-width:0.264583"
           d="m 63.869371,185.16115 11.907849,-6.875 11.907848,-6.875 a 23.815704,23.815704 180 0 1 23.815702,0 l 0,0 11.90784,6.875 11.90785,6.875 a 7.9385661,7.9385661 90 0 1 0,13.75 l -11.90785,6.875 -11.90784,6.875 0,0 a 23.815702,23.815702 3.8523215e-6 0 1 -23.815702,0 l -11.907848,-6.875 -11.907849,-6.875 a 7.9385664,7.9385664 90 0 1 0,-13.75 z"
           id="path19"
           sodipodi:nodetypes="ccccccccccccccccc"
           inkscape:path-effect="#path-effect19"
           inkscape:original-d="m 51.961523,192.03615 11.907848,-6.875 11.907849,-6.875 11.907848,-6.875 11.907849,-6.875 11.907853,6.875 11.90784,6.875 11.90785,6.875 11.90785,6.875 -11.90785,6.875 -11.90785,6.875 -11.90784,6.875 -11.907853,6.875 -11.907849,-6.875 -11.907848,-6.875 -11.907849,-6.875 z"
           transform="translate(-1.6666694e-8,-10.739402)" />
        <g
           id="g22"
           transform="matrix(0.55555552,0,0,0.55555552,49.074776,112.22222)">
          <path
             style="fill:#870000;fill-opacity:1;stroke-width:0.264583"
             d="m 69.282029,94.999997 12.99038,7.499993 12.990382,-7.499993 12.990379,7.499993 L 95.262791,110 l 4.330126,2.5 17.320513,-10.00001 -21.650639,-12.499994 -12.990382,7.500001 -4.330126,-2.5 12.99038,-7.500001 -4.330126,-2.5 z"
             id="path4" />
          <path
             style="fill:#870000;fill-opacity:1;stroke-width:0.264583"
             d="M 56.291649,102.49999 38.971143,112.5 51.961523,119.99999 69.282029,110 82.272409,117.5 64.951903,127.49999 69.282029,130 90.932663,117.5 69.282029,105 51.961523,115 47.631394,112.5 64.951903,102.49999 60.621777,99.999997 Z"
             id="path5" />
          <path
             style="fill:#870000;fill-opacity:1;stroke-width:0.264583"
             d="M 56.291649,102.49999 38.971143,112.5 51.961523,119.99999 69.282029,110 82.272409,117.5 64.951903,127.49999 69.282029,130 90.932663,117.5 69.282029,105 51.961523,115 47.631394,112.5 64.951903,102.49999 60.621777,99.999997 Z"
             id="path13" />
          <path
             style="fill:#450000;fill-opacity:1;stroke-width:0.264583"
             d="M 64.951903,102.49999 V 107.5 l -12.99038,7.5 -4.330129,-2.5 z"
             id="path14" />
          <path
             style="fill:#450000;fill-opacity:1;stroke-width:0.264583"
             d="m 38.971143,112.5 v 5 l 12.99038,7.49999 L 69.282029,115 l 8.660254,4.99999 -12.99038,7.5 V 132.5 l 4.330126,2.5 21.650634,-12.50001 V 117.5 L 69.282029,130 64.951903,127.49999 82.272409,117.5 69.282029,110 51.961523,119.99999 Z"
             id="path15" />
          <path
             style="fill:#450000;fill-opacity:1;stroke-width:0.264583"
             d="m 90.932663,87.499996 -12.99038,7.500001 4.330126,2.5 8.660254,-5.000001 z"
             id="path16" />
          <path
             style="fill:#450000;fill-opacity:1;stroke-width:0.264583"
             d="m 69.282029,94.999997 v 5 L 82.272409,107.5 95.262791,99.999997 103.92304,105 l -8.660249,5 v 5 l 4.330126,2.5 17.320513,-10 v -5.00001 L 99.592917,112.5 95.262791,110 108.25317,102.49999 95.262791,94.999997 82.272409,102.49999 Z"
             id="path17" />
        </g>
        <g
           id="g55"
           transform="matrix(0.36640098,0,0,0.36640098,55.10332,95.861739)">
          <g
             id="g33"
             transform="translate(38.178616,16.250002)">
            <path
               style="fill:#333333;fill-opacity:1;stroke-width:0.264583"
               d="m 67.909486,242.49999 -2.957583,5 0.188438,31.59876 L 80.899865,270 v -5.00002 l 4.33013,-2.49999 4.33013,2.49999 L 102.55051,257.5 v -5.00001 l -25.980775,-15 z"
               id="path32" />
            <path
               style="fill:#000000;fill-opacity:1;stroke-width:0.264583"
               d="m 67.909486,272.49999 v -30 l 8.660249,-5 25.980775,15 -12.990385,7.5 -4.33013,-2.49999 -4.33013,2.49999 v 4.99999 z"
               id="path23" />
            <path
               style="fill:none;fill-opacity:1;stroke-width:0.264583"
               d="m 63.579362,274.99999 v -30 l 8.660249,-5 25.980774,15 -12.99038,7.5 -4.33013,-2.49999 -4.33013,2.49999 v 4.99999 z"
               id="path25" />
            <path
               style="fill:none;fill-opacity:1;stroke-width:0.264583"
               d="m 72.239611,260 v -10.00001 l 8.660264,5 z"
               id="path26" />
            <path
               style="fill:#ffffff;fill-opacity:1;stroke-width:0.264583"
               d="m 76.569735,257.5 v -10.00001 l 8.66026,5 z"
               id="path24" />
            <path
               style="fill:#4d4d4d;fill-opacity:1;stroke-width:0.264583"
               d="m 76.569733,247.49999 v 5 l 4.330142,2.5 4.330118,-2.5 z"
               id="path33" />
          </g>
          <g
             id="g37"
             transform="translate(4.3301269,7.5000028)">
            <path
               style="fill:#000000;fill-opacity:1;stroke-width:0.264583"
               d="m 138.56406,254.99999 -25.98076,-15 4.33013,-3.03017 34.64101,10.53017 -25.98076,-15 4.33013,-2.5 30.31089,17.5 -8.66026,5 -25.98076,-10 21.65064,12.5 -4.33013,2.5 z"
               id="path31" />
            <path
               style="fill:#4d4d4d;fill-opacity:1;stroke-width:0.264583"
               d="m 112.5833,239.99999 v 5 l 30.31089,17.5 4.33012,-2.5 v -5 l -4.33012,2.5 z"
               id="path34" />
            <path
               style="fill:#4d4d4d;fill-opacity:1;stroke-width:0.264583"
               d="m 151.55444,252.49999 v 5 l -25.98076,-15 z"
               id="path35" />
            <path
               style="fill:#4d4d4d;fill-opacity:1;stroke-width:0.264583"
               d="m 151.55444,257.49999 8.66025,-5 v -5 l -8.66025,5 z"
               id="path36" />
            <path
               style="fill:#4d4d4d;fill-opacity:1;stroke-width:0.264583"
               d="m 125.57368,232.49999 v 5 l 8.66025,4.73491 17.32051,5.26509 z"
               id="path37" />
          </g>
          <g
             id="g50"
             transform="translate(-9.7189742,13.613473)">
            <ellipse
               style="fill:#4d4d4d;fill-opacity:1;stroke-width:0.264583"
               id="path38"
               cx="265"
               cy="107.30553"
               rx="19.485571"
               ry="12.042746"
               transform="rotate(30)" />
            <path
               style="fill:#333333;fill-opacity:1;stroke-width:0.264583"
               d="m 158.96897,215.68652 2.13675,-2.67209 z"
               id="path39" />
            <g
               id="g42"
               transform="translate(-4.894219,-2.9847581)">
              <g
                 id="g41">
                <ellipse
                   style="fill:#000000;fill-opacity:1;stroke-width:0.264583"
                   id="ellipse38"
                   cx="270.62198"
                   cy="105.3224"
                   rx="19.485571"
                   ry="12.042746"
                   transform="rotate(30)" />
              </g>
            </g>
            <g
               id="g44"
               transform="matrix(0.3528769,0,0,0.3528769,112.85,143.01383)"
               style="fill:#ffffff">
              <g
                 id="g43"
                 style="fill:#ffffff">
                <ellipse
                   style="fill:#ffffff;fill-opacity:1;stroke-width:0.264583"
                   id="ellipse42"
                   cx="270.62198"
                   cy="105.3224"
                   rx="19.485571"
                   ry="12.042746"
                   transform="rotate(30)" />
              </g>
            </g>
            <path
               style="fill:#4d4d4d;fill-opacity:1;stroke-width:0.264583"
               d="m 170.79968,220.38652 c 0,0 0.56638,-1.42931 5.19615,1 4.6298,2.42932 5.74076,5.71478 6.0185,5.94624 0.27775,0.23145 0.74065,-0.83324 1.06469,-1.20356 0.32403,-0.37032 0.0926,-0.60178 0.18516,-1.85162 0.0926,-1.24984 -1.9442,-3.47179 -2.87002,-4.11986 -0.92581,-0.64806 -4.02727,-2.96259 -6.38809,-2.22194 -2.36081,0.74065 -2.96259,0.74065 -3.10146,1.75904 -0.13887,1.0184 -0.10493,0.6917 -0.10493,0.6917 z"
               id="path44" />
          </g>
          <path
             style="fill:#333333;fill-opacity:1;stroke-width:0.264583"
             d="m 210.62919,220.59332 2.13675,-2.67209 z"
             id="path45" />
          <g
             id="g54"
             transform="translate(60.621774,165)">
            <path
               style="fill:#000000;fill-opacity:1;stroke-width:0.264583"
               d="m 129.90381,44.999999 -4.33013,-2.5 h -8.66025 l -8.66026,4.999998 v 5.000001 l 8.66026,5 21.65063,-2.5 4.33013,2.5 -4.33013,2.5 -4.33013,-2.5 -8.66025,5.000001 4.33013,2.499997 h 8.66025 l 8.66025,-4.999998 v -5 l -8.66025,-5.000001 h -8.66025 l -4.33013,2.500001 h -8.66025 l -4.33013,-2.500001 8.66025,-4.999998 4.33013,2.499998 z"
               id="path50" />
            <path
               style="fill:#4d4d4d;fill-opacity:1;stroke-width:0.264583"
               d="m 108.25317,52.499998 v 5 l 8.66026,5.000001 12.99038,-2.500001 4.33012,-2.5 4.33013,2.5 4.33013,-2.5 -4.33013,-2.5 -21.65063,2.5 z"
               id="path51" />
            <path
               style="fill:#4d4d4d;fill-opacity:1;stroke-width:0.264583"
               d="m 125.57368,62.499999 v 4.999997 l 4.33013,2.500001 h 8.66025 l 8.66025,-5.000001 v -4.999998 l -8.66025,4.999998 h -8.66025 z"
               id="path52" />
            <path
               style="fill:#4d4d4d;fill-opacity:1;stroke-width:0.264583"
               d="m 125.57368,47.499997 v 5.000001 l -4.33013,-2.500001 -4.33012,2.500001 -4.33013,-2.500001 8.66025,-4.999998 z"
               id="path53" />
            <path
               style="fill:#4d4d4d;fill-opacity:1;stroke-width:0.264583"
               d="m 125.57368,47.499997 4.33013,-2.499998 v 4.999998 l -4.33013,2.500001 z"
               id="path54" />
          </g>
        </g>
        <path
           style="fill:#00a500;fill-opacity:1;stroke-width:0.03125"
           d="m 367.17187,737.93991 v -3.43878 l 0.25782,0.15131 c 0.14179,0.0832 1.46015,0.84423 2.92968,1.69113 1.46954,0.8469 2.68972,1.55628 2.71153,1.57639 0.031,0.0286 -0.60534,0.4085 -2.90625,1.73527 -1.62025,0.93429 -2.95645,1.70427 -2.96934,1.71108 -0.0129,0.007 -0.0234,-1.53507 -0.0234,-3.4264 z"
           id="path55"
           transform="scale(0.26458333)" />
        <path
           style="fill:#00a500;fill-opacity:1;stroke-width:0.125"
           d="m 442.6875,696.79216 c -3.42466,-0.3541 -6.61985,-1.9527 -9,-4.50283 -1.57023,-1.68237 -2.35332,-3.25304 -2.4699,-4.95399 -0.0505,-0.73699 -0.0307,-0.97545 0.0757,-0.9097 0.0793,0.049 0.14418,0.031 0.14418,-0.0401 0,-0.0711 0.17899,-0.22173 0.39776,-0.33486 0.94077,-0.48649 3.25734,0.0731 6.02962,1.45653 2.03454,1.01528 3.72741,2.1817 5.20386,3.58555 1.35082,1.28442 2.14168,2.27046 3.06219,3.81795 0.57214,0.96183 0.58629,1.00837 0.3574,1.17603 -0.58917,0.43155 -2.68585,0.82066 -3.80083,0.70537 z"
           id="path56"
           transform="scale(0.26458333)" />
        <path
           style="fill:#00a500;fill-opacity:1;stroke-width:0.00390625"
           d="m 432.83613,683.87914 c 0.002,-0.002 0.0318,-0.0219 0.0662,-0.0443 0.3665,-0.23802 0.8096,-0.44215 1.26926,-0.58475 0.42577,-0.13208 0.87816,-0.22221 1.3616,-0.27129 0.10766,-0.0109 0.25408,-0.0229 0.25602,-0.021 0.003,0.003 -0.64791,0.20273 -1.3107,0.40156 -0.96433,0.28927 -1.32711,0.40472 -1.60093,0.50946 -0.0372,0.0142 -0.0482,0.017 -0.0415,0.0103 z"
           id="path58"
           transform="scale(0.26458333)" />
      </g>
    </g>
  </g>
</svg>
